# xmcd
#
# Track frame offsets: 
#        150
#        19517
#        38659
#        58391
#        77549
#        96303
#        115700
#        134706
#        153354
#        172791
#
# Disc length: 2554 seconds
#
# Revision: 0
# Processed by: cddbd v1.5.2PL0 Copyright (c) Steve Scherf et al.
# Submitted via: ExactAudioCopy v0.95b4
#
DISCID=7609f80a
DTITLE=ศักดิ์ ภูเวียง - อยากเห็นหน้าคนคิดฮอด
DYEAR=2007
DGENRE=Country
TTITLE0=อยากเห็นหน้าคนคิดฮอด
TTITLE1=ขอเสียงคนหลายใจ
TTITLE2=ดอกจานหล่นคนใจเหงา
TTITLE3=ซังหลายสายซ้อน
TTITLE4=ระวังฟ้าสิผ่าเด้อ
TTITLE5=หัวใจมักง่าย
TTITLE6=แค่คิดนอกใจ
TTITLE7=ถ่าอีหล่ากินดอง
TTITLE8=จออบบ้อนตอนน้องช้ำ
TTITLE9=ถิ่มอ้ายไปแต่งเขา
EXTD=
EXTT0=
EXTT1=
EXTT2=
EXTT3=
EXTT4=
EXTT5=
EXTT6=
EXTT7=
EXTT8=
EXTT9=
PLAYORDER=
